<mxfile host="app.diagrams.net" agent="Mozilla/5.0 (Windows NT 10.0; Win64; x64; rv:133.0) Gecko/20100101 Firefox/133.0" version="25.0.3">
  <diagram name="Seite-1" id="qBr-kgLi9h5OKOdKlUSg">
    <mxGraphModel dx="105" dy="225" grid="1" gridSize="10" guides="1" tooltips="1" connect="1" arrows="1" fold="1" page="1" pageScale="1" pageWidth="827" pageHeight="1169" math="0" shadow="0">
      <root>
        <mxCell id="0" />
        <mxCell id="1" parent="0" />
        <object label="Location" btelligentShapeType="Dimension" btelligentLibrary="ADAPT" id="pI8diWF3I-Tx-rrlMoEu-1">
          <mxCell style="group;fillColor=default;verticalAlign=middle;align=left;spacingLeft=31;fontStyle=1;connectable=1;whiteSpace=wrap;" vertex="1" connectable="0" parent="1">
            <mxGeometry x="3080" y="1280" width="160" height="40" as="geometry" />
          </mxCell>
        </object>
        <object label="GGG" id="pI8diWF3I-Tx-rrlMoEu-2">
          <mxCell style="rounded=0;whiteSpace=wrap;html=1;noLabel=1;container=0;editable=0;movable=1;resizable=1;rotatable=1;deletable=1;locked=0;connectable=0;fillColor=none;" vertex="1" parent="pI8diWF3I-Tx-rrlMoEu-1">
            <mxGeometry width="160" height="40" as="geometry" />
          </mxCell>
        </object>
        <mxCell id="pI8diWF3I-Tx-rrlMoEu-3" value="" style="rounded=0;whiteSpace=wrap;html=1;fillColor=#000000;fontColor=#ffffff;strokeColor=#000000;strokeWidth=1;deletable=1;cloneable=0;movable=1;editable=1;resizable=1;rotatable=1;locked=0;connectable=1;container=0;expand=0;recursiveResize=0;allowArrows=0;" vertex="1" parent="pI8diWF3I-Tx-rrlMoEu-1">
          <mxGeometry x="6.000000000000028" y="14" width="10" height="10" as="geometry" />
        </mxCell>
        <mxCell id="pI8diWF3I-Tx-rrlMoEu-4" value="" style="endArrow=block;html=1;rounded=0;endFill=1;startSize=2;endSize=3;strokeWidth=1;deletable=1;cloneable=0;movable=1;editable=1;resizable=1;rotatable=1;locked=0;connectable=1;" edge="1" parent="pI8diWF3I-Tx-rrlMoEu-1">
          <mxGeometry width="50" height="50" relative="1" as="geometry">
            <mxPoint x="15.000000000000028" y="14" as="sourcePoint" />
            <mxPoint x="28.00000000000003" y="14" as="targetPoint" />
          </mxGeometry>
        </mxCell>
        <mxCell id="pI8diWF3I-Tx-rrlMoEu-5" value="" style="endArrow=block;html=1;rounded=0;endFill=1;startSize=2;endSize=3;strokeWidth=1;deletable=1;cloneable=0;movable=1;editable=1;resizable=1;rotatable=1;locked=0;connectable=1;" edge="1" parent="pI8diWF3I-Tx-rrlMoEu-1">
          <mxGeometry width="50" height="50" relative="1" as="geometry">
            <mxPoint x="6.000000000000028" y="22" as="sourcePoint" />
            <mxPoint x="6.000000000000028" y="36" as="targetPoint" />
          </mxGeometry>
        </mxCell>
        <mxCell id="pI8diWF3I-Tx-rrlMoEu-6" value="" style="endArrow=block;html=1;rounded=0;endFill=1;startSize=2;endSize=3;strokeWidth=1;deletable=1;cloneable=0;movable=1;editable=1;resizable=1;rotatable=1;locked=0;connectable=1;" edge="1" parent="pI8diWF3I-Tx-rrlMoEu-1">
          <mxGeometry width="50" height="50" relative="1" as="geometry">
            <mxPoint x="6.000000000000028" y="14" as="sourcePoint" />
            <mxPoint x="17.00000000000003" y="4" as="targetPoint" />
          </mxGeometry>
        </mxCell>
        <object label="Functional Hierarchy" btelligentShapeType="Hierarchy" btelligentLibrary="ADAPT" id="pI8diWF3I-Tx-rrlMoEu-7">
          <mxCell style="group;fillColor=default;verticalAlign=middle;align=left;spacingLeft=32;connectable=1;whiteSpace=wrap;" vertex="1" connectable="0" parent="1">
            <mxGeometry x="3320" y="1400" width="160" height="40" as="geometry" />
          </mxCell>
        </object>
        <mxCell id="pI8diWF3I-Tx-rrlMoEu-8" value="Hierarchy" style="shape=loopLimit;whiteSpace=wrap;html=1;size=20;verticalAlign=middle;spacingLeft=37;align=left;container=0;fillColor=none;noLabel=1;editable=0;movable=1;resizable=1;rotatable=1;deletable=1;locked=0;connectable=0;" vertex="1" parent="pI8diWF3I-Tx-rrlMoEu-7">
          <mxGeometry width="160" height="40" as="geometry" />
        </mxCell>
        <mxCell id="pI8diWF3I-Tx-rrlMoEu-9" value="" style="group;movable=1;resizable=1;rotatable=1;deletable=1;editable=1;locked=0;connectable=1;" vertex="1" connectable="0" parent="pI8diWF3I-Tx-rrlMoEu-7">
          <mxGeometry x="5" y="10" width="24" height="24" as="geometry" />
        </mxCell>
        <mxCell id="pI8diWF3I-Tx-rrlMoEu-10" style="vsdxID=8;fillColor=#C0C0C0;gradientColor=none;shape=stencil(rVFBDsIwDHtNj5VCK14wxj8ilm0VZZ3SAuX3tAoIBhwQ4mbHjhMlyjZxxJmUgZg47OnsujQqu1HGuGkkdqkgZVtlmz4wDRyOUyd8xuqs6BBONSFLH9QOAxdha6FbcSLvisR5oQEvvfegFXyMgqwxu6g5JEwuTIupHnkgXcbo3uNwyxEpnonmt/Ivi/1nLfhirQIeZ+6d9/KlZ/31LaUkL7XtFQ==);strokeColor=#000000;spacingTop=-3;spacingBottom=-3;spacingLeft=-3;spacingRight=-3;points=[];labelBackgroundColor=none;rounded=0;html=1;whiteSpace=wrap;container=0;" vertex="1" parent="pI8diWF3I-Tx-rrlMoEu-9">
          <mxGeometry y="15" width="9" height="9" as="geometry" />
        </mxCell>
        <mxCell id="pI8diWF3I-Tx-rrlMoEu-11" style="vsdxID=9;fillColor=#C0C0C0;gradientColor=none;shape=stencil(rVFBDsIwDHtNj5VCK14wxj8ilm0VZZ3SAuX3tAoIBhwQ4mbHjhMlyjZxxJmUgZg47OnsujQqu1HGuGkkdqkgZVtlmz4wDRyOUyd8xuqs6BBONSFLH9QOAxdha6FbcSLvisR5oQEvvfegFXyMgqwxu6g5JEwuTIupHnkgXcbo3uNwyxEpnonmt/Ivi/1nLfhirQIeZ+6d9/KlZ/31LaUkL7XtFQ==);strokeColor=#000000;spacingTop=-3;spacingBottom=-3;spacingLeft=-3;spacingRight=-3;points=[];labelBackgroundColor=none;rounded=0;html=1;whiteSpace=wrap;container=0;" vertex="1" parent="pI8diWF3I-Tx-rrlMoEu-9">
          <mxGeometry x="15" y="15" width="9" height="9" as="geometry" />
        </mxCell>
        <mxCell id="pI8diWF3I-Tx-rrlMoEu-12" style="vsdxID=10;fillColor=#C0C0C0;gradientColor=none;shape=stencil(rVFBDsIwDHtNj5VCK14wxj8ilm0VZZ3SAuX3tAoIBhwQ4mbHjhMlyjZxxJmUgZg47OnsujQqu1HGuGkkdqkgZVtlmz4wDRyOUyd8xuqs6BBONSFLH9QOAxdha6FbcSLvisR5oQEvvfegFXyMgqwxu6g5JEwuTIupHnkgXcbo3uNwyxEpnonmt/Ivi/1nLfhirQIeZ+6d9/KlZ/31LaUkL7XtFQ==);strokeColor=#000000;spacingTop=-3;spacingBottom=-3;spacingLeft=-3;spacingRight=-3;points=[];labelBackgroundColor=none;rounded=0;html=1;whiteSpace=wrap;container=0;" vertex="1" parent="pI8diWF3I-Tx-rrlMoEu-9">
          <mxGeometry x="7" width="9" height="9" as="geometry" />
        </mxCell>
        <mxCell id="pI8diWF3I-Tx-rrlMoEu-13" value="" style="vsdxID=11;edgeStyle=none;startArrow=none;endArrow=none;startSize=5;endSize=5;strokeColor=#000000;spacingTop=-3;spacingBottom=-3;spacingLeft=-3;spacingRight=-3;verticalAlign=middle;html=1;labelBackgroundColor=none;rounded=0;" edge="1" parent="pI8diWF3I-Tx-rrlMoEu-9">
          <mxGeometry relative="1" as="geometry">
            <Array as="points" />
            <mxPoint x="6" y="15" as="sourcePoint" />
            <mxPoint x="10" y="9" as="targetPoint" />
          </mxGeometry>
        </mxCell>
        <mxCell id="pI8diWF3I-Tx-rrlMoEu-14" value="" style="vsdxID=12;edgeStyle=none;startArrow=none;endArrow=none;startSize=5;endSize=5;strokeColor=#000000;spacingTop=-3;spacingBottom=-3;spacingLeft=-3;spacingRight=-3;verticalAlign=middle;html=1;labelBackgroundColor=none;rounded=0;" edge="1" parent="pI8diWF3I-Tx-rrlMoEu-9" target="pI8diWF3I-Tx-rrlMoEu-12">
          <mxGeometry relative="1" as="geometry">
            <Array as="points" />
            <mxPoint x="18" y="15" as="sourcePoint" />
            <mxPoint x="15" y="9" as="targetPoint" />
          </mxGeometry>
        </mxCell>
        <object label="Geographical Hierarchy" btelligentShapeType="Hierarchy" btelligentLibrary="ADAPT" id="pI8diWF3I-Tx-rrlMoEu-15">
          <mxCell style="group;fillColor=default;verticalAlign=middle;align=left;spacingLeft=32;connectable=1;whiteSpace=wrap;" vertex="1" connectable="0" parent="1">
            <mxGeometry x="3080" y="1400" width="160" height="40" as="geometry" />
          </mxCell>
        </object>
        <mxCell id="pI8diWF3I-Tx-rrlMoEu-16" value="Hierarchy" style="shape=loopLimit;whiteSpace=wrap;html=1;size=20;verticalAlign=middle;spacingLeft=37;align=left;container=0;fillColor=none;noLabel=1;editable=0;movable=1;resizable=1;rotatable=1;deletable=1;locked=0;connectable=0;" vertex="1" parent="pI8diWF3I-Tx-rrlMoEu-15">
          <mxGeometry width="160" height="40" as="geometry" />
        </mxCell>
        <mxCell id="pI8diWF3I-Tx-rrlMoEu-17" value="" style="group;movable=1;resizable=1;rotatable=1;deletable=1;editable=1;locked=0;connectable=1;" vertex="1" connectable="0" parent="pI8diWF3I-Tx-rrlMoEu-15">
          <mxGeometry x="5" y="10" width="24" height="24" as="geometry" />
        </mxCell>
        <mxCell id="pI8diWF3I-Tx-rrlMoEu-18" style="vsdxID=8;fillColor=#C0C0C0;gradientColor=none;shape=stencil(rVFBDsIwDHtNj5VCK14wxj8ilm0VZZ3SAuX3tAoIBhwQ4mbHjhMlyjZxxJmUgZg47OnsujQqu1HGuGkkdqkgZVtlmz4wDRyOUyd8xuqs6BBONSFLH9QOAxdha6FbcSLvisR5oQEvvfegFXyMgqwxu6g5JEwuTIupHnkgXcbo3uNwyxEpnonmt/Ivi/1nLfhirQIeZ+6d9/KlZ/31LaUkL7XtFQ==);strokeColor=#000000;spacingTop=-3;spacingBottom=-3;spacingLeft=-3;spacingRight=-3;points=[];labelBackgroundColor=none;rounded=0;html=1;whiteSpace=wrap;container=0;" vertex="1" parent="pI8diWF3I-Tx-rrlMoEu-17">
          <mxGeometry y="15" width="9" height="9" as="geometry" />
        </mxCell>
        <mxCell id="pI8diWF3I-Tx-rrlMoEu-19" style="vsdxID=9;fillColor=#C0C0C0;gradientColor=none;shape=stencil(rVFBDsIwDHtNj5VCK14wxj8ilm0VZZ3SAuX3tAoIBhwQ4mbHjhMlyjZxxJmUgZg47OnsujQqu1HGuGkkdqkgZVtlmz4wDRyOUyd8xuqs6BBONSFLH9QOAxdha6FbcSLvisR5oQEvvfegFXyMgqwxu6g5JEwuTIupHnkgXcbo3uNwyxEpnonmt/Ivi/1nLfhirQIeZ+6d9/KlZ/31LaUkL7XtFQ==);strokeColor=#000000;spacingTop=-3;spacingBottom=-3;spacingLeft=-3;spacingRight=-3;points=[];labelBackgroundColor=none;rounded=0;html=1;whiteSpace=wrap;container=0;" vertex="1" parent="pI8diWF3I-Tx-rrlMoEu-17">
          <mxGeometry x="15" y="15" width="9" height="9" as="geometry" />
        </mxCell>
        <mxCell id="pI8diWF3I-Tx-rrlMoEu-20" style="vsdxID=10;fillColor=#C0C0C0;gradientColor=none;shape=stencil(rVFBDsIwDHtNj5VCK14wxj8ilm0VZZ3SAuX3tAoIBhwQ4mbHjhMlyjZxxJmUgZg47OnsujQqu1HGuGkkdqkgZVtlmz4wDRyOUyd8xuqs6BBONSFLH9QOAxdha6FbcSLvisR5oQEvvfegFXyMgqwxu6g5JEwuTIupHnkgXcbo3uNwyxEpnonmt/Ivi/1nLfhirQIeZ+6d9/KlZ/31LaUkL7XtFQ==);strokeColor=#000000;spacingTop=-3;spacingBottom=-3;spacingLeft=-3;spacingRight=-3;points=[];labelBackgroundColor=none;rounded=0;html=1;whiteSpace=wrap;container=0;" vertex="1" parent="pI8diWF3I-Tx-rrlMoEu-17">
          <mxGeometry x="7" width="9" height="9" as="geometry" />
        </mxCell>
        <mxCell id="pI8diWF3I-Tx-rrlMoEu-21" value="" style="vsdxID=11;edgeStyle=none;startArrow=none;endArrow=none;startSize=5;endSize=5;strokeColor=#000000;spacingTop=-3;spacingBottom=-3;spacingLeft=-3;spacingRight=-3;verticalAlign=middle;html=1;labelBackgroundColor=none;rounded=0;" edge="1" parent="pI8diWF3I-Tx-rrlMoEu-17">
          <mxGeometry relative="1" as="geometry">
            <Array as="points" />
            <mxPoint x="6" y="15" as="sourcePoint" />
            <mxPoint x="10" y="9" as="targetPoint" />
          </mxGeometry>
        </mxCell>
        <mxCell id="pI8diWF3I-Tx-rrlMoEu-22" value="" style="vsdxID=12;edgeStyle=none;startArrow=none;endArrow=none;startSize=5;endSize=5;strokeColor=#000000;spacingTop=-3;spacingBottom=-3;spacingLeft=-3;spacingRight=-3;verticalAlign=middle;html=1;labelBackgroundColor=none;rounded=0;" edge="1" parent="pI8diWF3I-Tx-rrlMoEu-17" target="pI8diWF3I-Tx-rrlMoEu-20">
          <mxGeometry relative="1" as="geometry">
            <Array as="points" />
            <mxPoint x="18" y="15" as="sourcePoint" />
            <mxPoint x="15" y="9" as="targetPoint" />
          </mxGeometry>
        </mxCell>
        <object label="Location" btelligentShapeType="HierarchyLevel" btelligentLibrary="ADAPT" id="pI8diWF3I-Tx-rrlMoEu-23">
          <mxCell style="group;fillColor=default;verticalAlign=middle;align=left;spacingLeft=34;connectable=1;whiteSpace=wrap;" vertex="1" connectable="0" parent="1">
            <mxGeometry x="3320" y="1760" width="160" height="40" as="geometry" />
          </mxCell>
        </object>
        <mxCell id="pI8diWF3I-Tx-rrlMoEu-24" value="" style="group;movable=0;resizable=0;rotatable=0;deletable=0;editable=0;locked=1;connectable=0;" vertex="1" connectable="0" parent="pI8diWF3I-Tx-rrlMoEu-23">
          <mxGeometry x="3" y="2" width="30" height="30" as="geometry" />
        </mxCell>
        <mxCell id="pI8diWF3I-Tx-rrlMoEu-25" value="&lt;div style=&quot;font-size: 1px&quot;&gt;&lt;/div&gt;" style="verticalAlign=middle;align=center;overflow=width;vsdxID=9;fillColor=#C0C0C0;gradientColor=none;shape=stencil(UzV2Ls5ILEhVNTIoLinKz04tz0wpyVA1dlE1MsrMy0gtyiwBslSNXVWNndPyi1LTi/JL81Ig/IJEkEoQKze/DGRCBUSfqQFIi5FBJYQL4blBVOZk5iGpRFVoaIBHKUySKMX4XABkIByelpmTA/E3sjy6R4FCkEAydgUA);strokeColor=#000000;spacingTop=-3;spacingBottom=-3;spacingLeft=-3;spacingRight=-3;points=[];labelBackgroundColor=none;rounded=0;html=1;whiteSpace=wrap;container=0;" vertex="1" parent="pI8diWF3I-Tx-rrlMoEu-24">
          <mxGeometry x="9" y="11" width="13" height="11" as="geometry" />
        </mxCell>
        <mxCell id="pI8diWF3I-Tx-rrlMoEu-26" value="&lt;div style=&quot;font-size: 24px;&quot;&gt;&lt;font style=&quot;font-size: 24px; font-family: Calibri; color: rgb(0, 0, 0); direction: ltr; letter-spacing: 0px; line-height: 120%; opacity: 1;&quot;&gt;{&amp;nbsp;  }&lt;br style=&quot;font-size: 24px;&quot;&gt;&lt;/font&gt;&lt;/div&gt;" style="verticalAlign=middle;align=center;overflow=width;vsdxID=10;fillColor=none;gradientColor=none;shape=stencil(nZBLDoAgDERP0z3SIyjew0SURgSD+Lu9kMZoXLhwN9O+tukAlrNpJg1SzDH4QW/URgNYgZTkjA4UkwJUgGXng+6DX1zLfmoymdXo17xh5zmRJ6Q42BWCfc2oJfdAr+Yv+AP9Cb7OJ3H/2JG1HNGz/84klThPVCc=);strokeColor=none;spacingTop=0;spacingBottom=0;spacingLeft=0;spacingRight=0;points=[];labelBackgroundColor=none;rounded=0;html=1;whiteSpace=wrap;container=0;fontSize=24;fontStyle=0;horizontal=1;" vertex="1" parent="pI8diWF3I-Tx-rrlMoEu-24">
          <mxGeometry width="30" height="30" as="geometry" />
        </mxCell>
        <object label="" ADAPT="Hierarchy Level" id="pI8diWF3I-Tx-rrlMoEu-27">
          <mxCell style="rounded=1;whiteSpace=wrap;html=1;arcSize=50;fillColor=none;noLabel=1;connectable=0;editable=0;" vertex="1" parent="pI8diWF3I-Tx-rrlMoEu-23">
            <mxGeometry width="160" height="40" as="geometry" />
          </mxCell>
        </object>
        <object label="Location Type" btelligentShapeType="HierarchyLevel" btelligentLibrary="ADAPT" id="pI8diWF3I-Tx-rrlMoEu-28">
          <mxCell style="group;fillColor=default;verticalAlign=middle;align=left;spacingLeft=34;connectable=1;whiteSpace=wrap;" vertex="1" connectable="0" parent="1">
            <mxGeometry x="3320" y="1640" width="160" height="40" as="geometry" />
          </mxCell>
        </object>
        <mxCell id="pI8diWF3I-Tx-rrlMoEu-29" value="" style="group;movable=0;resizable=0;rotatable=0;deletable=0;editable=0;locked=1;connectable=0;" vertex="1" connectable="0" parent="pI8diWF3I-Tx-rrlMoEu-28">
          <mxGeometry x="3" y="2" width="30" height="30" as="geometry" />
        </mxCell>
        <mxCell id="pI8diWF3I-Tx-rrlMoEu-30" value="&lt;div style=&quot;font-size: 1px&quot;&gt;&lt;/div&gt;" style="verticalAlign=middle;align=center;overflow=width;vsdxID=9;fillColor=#C0C0C0;gradientColor=none;shape=stencil(UzV2Ls5ILEhVNTIoLinKz04tz0wpyVA1dlE1MsrMy0gtyiwBslSNXVWNndPyi1LTi/JL81Ig/IJEkEoQKze/DGRCBUSfqQFIi5FBJYQL4blBVOZk5iGpRFVoaIBHKUySKMX4XABkIByelpmTA/E3sjy6R4FCkEAydgUA);strokeColor=#000000;spacingTop=-3;spacingBottom=-3;spacingLeft=-3;spacingRight=-3;points=[];labelBackgroundColor=none;rounded=0;html=1;whiteSpace=wrap;container=0;" vertex="1" parent="pI8diWF3I-Tx-rrlMoEu-29">
          <mxGeometry x="9" y="11" width="13" height="11" as="geometry" />
        </mxCell>
        <mxCell id="pI8diWF3I-Tx-rrlMoEu-31" value="&lt;div style=&quot;font-size: 24px;&quot;&gt;&lt;font style=&quot;font-size: 24px; font-family: Calibri; color: rgb(0, 0, 0); direction: ltr; letter-spacing: 0px; line-height: 120%; opacity: 1;&quot;&gt;{&amp;nbsp;  }&lt;br style=&quot;font-size: 24px;&quot;&gt;&lt;/font&gt;&lt;/div&gt;" style="verticalAlign=middle;align=center;overflow=width;vsdxID=10;fillColor=none;gradientColor=none;shape=stencil(nZBLDoAgDERP0z3SIyjew0SURgSD+Lu9kMZoXLhwN9O+tukAlrNpJg1SzDH4QW/URgNYgZTkjA4UkwJUgGXng+6DX1zLfmoymdXo17xh5zmRJ6Q42BWCfc2oJfdAr+Yv+AP9Cb7OJ3H/2JG1HNGz/84klThPVCc=);strokeColor=none;spacingTop=0;spacingBottom=0;spacingLeft=0;spacingRight=0;points=[];labelBackgroundColor=none;rounded=0;html=1;whiteSpace=wrap;container=0;fontSize=24;fontStyle=0;horizontal=1;" vertex="1" parent="pI8diWF3I-Tx-rrlMoEu-29">
          <mxGeometry width="30" height="30" as="geometry" />
        </mxCell>
        <object label="" ADAPT="Hierarchy Level" id="pI8diWF3I-Tx-rrlMoEu-32">
          <mxCell style="rounded=1;whiteSpace=wrap;html=1;arcSize=50;fillColor=none;noLabel=1;connectable=0;editable=0;" vertex="1" parent="pI8diWF3I-Tx-rrlMoEu-28">
            <mxGeometry width="160" height="40" as="geometry" />
          </mxCell>
        </object>
        <object label="Name" btelligentShapeType="Attribute" btelligentLibrary="ADAPT" id="pI8diWF3I-Tx-rrlMoEu-33">
          <mxCell style="group;fillColor=default;connectable=1;verticalAlign=middle;align=left;spacingLeft=36;whiteSpace=wrap;spacingRight=2;" vertex="1" connectable="0" parent="1">
            <mxGeometry x="3562" y="1760" width="160" height="40" as="geometry" />
          </mxCell>
        </object>
        <object label="" ADAPT="Attribute" id="pI8diWF3I-Tx-rrlMoEu-34">
          <mxCell style="shape=singleArrow;direction=west;whiteSpace=wrap;html=1;arrowWidth=1;arrowSize=0.125;align=left;spacingLeft=37;container=0;fillColor=none;noLabel=1;connectable=0;editable=0;" vertex="1" parent="pI8diWF3I-Tx-rrlMoEu-33">
            <mxGeometry width="160" height="40" as="geometry" />
          </mxCell>
        </object>
        <mxCell id="pI8diWF3I-Tx-rrlMoEu-35" style="vsdxID=7;fillColor=#C0C0C0;gradientColor=none;shape=stencil(nZBNDoQgDIVP0z3SeALFe5iI0gwDBvHv9kIaM+rCxezea7++pA+wmkw7apBiisF/9EpdNIA1SEnO6EAxKUAFWPU+6CH42XXsxzaTWX39khM2vitFPpFiZ8uuYdKSu5B3sHwhH5mFeGHP5R+5NzKJ34s9WcsNXffPStKI60R1AA==);strokeColor=#000000;spacingTop=-3;spacingBottom=-3;spacingLeft=-3;spacingRight=-3;points=[];labelBackgroundColor=none;rounded=0;html=1;whiteSpace=wrap;container=0;" vertex="1" parent="pI8diWF3I-Tx-rrlMoEu-33">
          <mxGeometry x="8" y="7.5" width="25" height="25" as="geometry" />
        </mxCell>
        <object label="Address" btelligentShapeType="Attribute" btelligentLibrary="ADAPT" id="pI8diWF3I-Tx-rrlMoEu-36">
          <mxCell style="group;fillColor=default;connectable=1;verticalAlign=middle;align=left;spacingLeft=36;whiteSpace=wrap;spacingRight=2;" vertex="1" connectable="0" parent="1">
            <mxGeometry x="3562" y="1820" width="160" height="40" as="geometry" />
          </mxCell>
        </object>
        <object label="" ADAPT="Attribute" id="pI8diWF3I-Tx-rrlMoEu-37">
          <mxCell style="shape=singleArrow;direction=west;whiteSpace=wrap;html=1;arrowWidth=1;arrowSize=0.125;align=left;spacingLeft=37;container=0;fillColor=none;noLabel=1;connectable=0;editable=0;" vertex="1" parent="pI8diWF3I-Tx-rrlMoEu-36">
            <mxGeometry width="160" height="40" as="geometry" />
          </mxCell>
        </object>
        <mxCell id="pI8diWF3I-Tx-rrlMoEu-38" style="vsdxID=7;fillColor=#C0C0C0;gradientColor=none;shape=stencil(nZBNDoQgDIVP0z3SeALFe5iI0gwDBvHv9kIaM+rCxezea7++pA+wmkw7apBiisF/9EpdNIA1SEnO6EAxKUAFWPU+6CH42XXsxzaTWX39khM2vitFPpFiZ8uuYdKSu5B3sHwhH5mFeGHP5R+5NzKJ34s9WcsNXffPStKI60R1AA==);strokeColor=#000000;spacingTop=-3;spacingBottom=-3;spacingLeft=-3;spacingRight=-3;points=[];labelBackgroundColor=none;rounded=0;html=1;whiteSpace=wrap;container=0;" vertex="1" parent="pI8diWF3I-Tx-rrlMoEu-36">
          <mxGeometry x="8" y="7.5" width="25" height="25" as="geometry" />
        </mxCell>
        <object label="Country" btelligentShapeType="Attribute" btelligentLibrary="ADAPT" id="pI8diWF3I-Tx-rrlMoEu-39">
          <mxCell style="group;fillColor=default;connectable=1;verticalAlign=middle;align=left;spacingLeft=36;whiteSpace=wrap;spacingRight=2;" vertex="1" connectable="0" parent="1">
            <mxGeometry x="2840" y="1520" width="160" height="40" as="geometry" />
          </mxCell>
        </object>
        <object label="" ADAPT="Attribute" id="pI8diWF3I-Tx-rrlMoEu-40">
          <mxCell style="shape=singleArrow;direction=west;whiteSpace=wrap;html=1;arrowWidth=1;arrowSize=0.125;align=left;spacingLeft=37;container=0;fillColor=none;noLabel=1;connectable=0;editable=0;" vertex="1" parent="pI8diWF3I-Tx-rrlMoEu-39">
            <mxGeometry width="160" height="40" as="geometry" />
          </mxCell>
        </object>
        <mxCell id="pI8diWF3I-Tx-rrlMoEu-41" style="vsdxID=7;fillColor=#C0C0C0;gradientColor=none;shape=stencil(nZBNDoQgDIVP0z3SeALFe5iI0gwDBvHv9kIaM+rCxezea7++pA+wmkw7apBiisF/9EpdNIA1SEnO6EAxKUAFWPU+6CH42XXsxzaTWX39khM2vitFPpFiZ8uuYdKSu5B3sHwhH5mFeGHP5R+5NzKJ34s9WcsNXffPStKI60R1AA==);strokeColor=#000000;spacingTop=-3;spacingBottom=-3;spacingLeft=-3;spacingRight=-3;points=[];labelBackgroundColor=none;rounded=0;html=1;whiteSpace=wrap;container=0;" vertex="1" parent="pI8diWF3I-Tx-rrlMoEu-39">
          <mxGeometry x="8" y="7.5" width="25" height="25" as="geometry" />
        </mxCell>
        <object label="Country" btelligentShapeType="HierarchyLevel" btelligentLibrary="ADAPT" id="pI8diWF3I-Tx-rrlMoEu-42">
          <mxCell style="group;fillColor=default;verticalAlign=middle;align=left;spacingLeft=34;connectable=1;whiteSpace=wrap;" vertex="1" connectable="0" parent="1">
            <mxGeometry x="3080" y="1520" width="160" height="40" as="geometry" />
          </mxCell>
        </object>
        <mxCell id="pI8diWF3I-Tx-rrlMoEu-43" value="" style="group;movable=0;resizable=0;rotatable=0;deletable=0;editable=0;locked=1;connectable=0;" vertex="1" connectable="0" parent="pI8diWF3I-Tx-rrlMoEu-42">
          <mxGeometry x="3" y="2" width="30" height="30" as="geometry" />
        </mxCell>
        <mxCell id="pI8diWF3I-Tx-rrlMoEu-44" value="&lt;div style=&quot;font-size: 1px&quot;&gt;&lt;/div&gt;" style="verticalAlign=middle;align=center;overflow=width;vsdxID=9;fillColor=#C0C0C0;gradientColor=none;shape=stencil(UzV2Ls5ILEhVNTIoLinKz04tz0wpyVA1dlE1MsrMy0gtyiwBslSNXVWNndPyi1LTi/JL81Ig/IJEkEoQKze/DGRCBUSfqQFIi5FBJYQL4blBVOZk5iGpRFVoaIBHKUySKMX4XABkIByelpmTA/E3sjy6R4FCkEAydgUA);strokeColor=#000000;spacingTop=-3;spacingBottom=-3;spacingLeft=-3;spacingRight=-3;points=[];labelBackgroundColor=none;rounded=0;html=1;whiteSpace=wrap;container=0;" vertex="1" parent="pI8diWF3I-Tx-rrlMoEu-43">
          <mxGeometry x="9" y="11" width="13" height="11" as="geometry" />
        </mxCell>
        <mxCell id="pI8diWF3I-Tx-rrlMoEu-45" value="&lt;div style=&quot;font-size: 24px;&quot;&gt;&lt;font style=&quot;font-size: 24px; font-family: Calibri; color: rgb(0, 0, 0); direction: ltr; letter-spacing: 0px; line-height: 120%; opacity: 1;&quot;&gt;{&amp;nbsp;  }&lt;br style=&quot;font-size: 24px;&quot;&gt;&lt;/font&gt;&lt;/div&gt;" style="verticalAlign=middle;align=center;overflow=width;vsdxID=10;fillColor=none;gradientColor=none;shape=stencil(nZBLDoAgDERP0z3SIyjew0SURgSD+Lu9kMZoXLhwN9O+tukAlrNpJg1SzDH4QW/URgNYgZTkjA4UkwJUgGXng+6DX1zLfmoymdXo17xh5zmRJ6Q42BWCfc2oJfdAr+Yv+AP9Cb7OJ3H/2JG1HNGz/84klThPVCc=);strokeColor=none;spacingTop=0;spacingBottom=0;spacingLeft=0;spacingRight=0;points=[];labelBackgroundColor=none;rounded=0;html=1;whiteSpace=wrap;container=0;fontSize=24;fontStyle=0;horizontal=1;" vertex="1" parent="pI8diWF3I-Tx-rrlMoEu-43">
          <mxGeometry width="30" height="30" as="geometry" />
        </mxCell>
        <object label="" ADAPT="Hierarchy Level" id="pI8diWF3I-Tx-rrlMoEu-46">
          <mxCell style="rounded=1;whiteSpace=wrap;html=1;arcSize=50;fillColor=none;noLabel=1;connectable=0;editable=0;" vertex="1" parent="pI8diWF3I-Tx-rrlMoEu-42">
            <mxGeometry width="160" height="40" as="geometry" />
          </mxCell>
        </object>
        <object label="Zone" btelligentShapeType="HierarchyLevel" btelligentLibrary="ADAPT" id="pI8diWF3I-Tx-rrlMoEu-47">
          <mxCell style="group;fillColor=default;verticalAlign=middle;align=left;spacingLeft=34;connectable=1;whiteSpace=wrap;" vertex="1" connectable="0" parent="1">
            <mxGeometry x="3080" y="1640" width="160" height="40" as="geometry" />
          </mxCell>
        </object>
        <mxCell id="pI8diWF3I-Tx-rrlMoEu-48" value="" style="group;movable=0;resizable=0;rotatable=0;deletable=0;editable=0;locked=1;connectable=0;" vertex="1" connectable="0" parent="pI8diWF3I-Tx-rrlMoEu-47">
          <mxGeometry x="3" y="2" width="30" height="30" as="geometry" />
        </mxCell>
        <mxCell id="pI8diWF3I-Tx-rrlMoEu-49" value="&lt;div style=&quot;font-size: 1px&quot;&gt;&lt;/div&gt;" style="verticalAlign=middle;align=center;overflow=width;vsdxID=9;fillColor=#C0C0C0;gradientColor=none;shape=stencil(UzV2Ls5ILEhVNTIoLinKz04tz0wpyVA1dlE1MsrMy0gtyiwBslSNXVWNndPyi1LTi/JL81Ig/IJEkEoQKze/DGRCBUSfqQFIi5FBJYQL4blBVOZk5iGpRFVoaIBHKUySKMX4XABkIByelpmTA/E3sjy6R4FCkEAydgUA);strokeColor=#000000;spacingTop=-3;spacingBottom=-3;spacingLeft=-3;spacingRight=-3;points=[];labelBackgroundColor=none;rounded=0;html=1;whiteSpace=wrap;container=0;" vertex="1" parent="pI8diWF3I-Tx-rrlMoEu-48">
          <mxGeometry x="9" y="11" width="13" height="11" as="geometry" />
        </mxCell>
        <mxCell id="pI8diWF3I-Tx-rrlMoEu-50" value="&lt;div style=&quot;font-size: 24px;&quot;&gt;&lt;font style=&quot;font-size: 24px; font-family: Calibri; color: rgb(0, 0, 0); direction: ltr; letter-spacing: 0px; line-height: 120%; opacity: 1;&quot;&gt;{&amp;nbsp;  }&lt;br style=&quot;font-size: 24px;&quot;&gt;&lt;/font&gt;&lt;/div&gt;" style="verticalAlign=middle;align=center;overflow=width;vsdxID=10;fillColor=none;gradientColor=none;shape=stencil(nZBLDoAgDERP0z3SIyjew0SURgSD+Lu9kMZoXLhwN9O+tukAlrNpJg1SzDH4QW/URgNYgZTkjA4UkwJUgGXng+6DX1zLfmoymdXo17xh5zmRJ6Q42BWCfc2oJfdAr+Yv+AP9Cb7OJ3H/2JG1HNGz/84klThPVCc=);strokeColor=none;spacingTop=0;spacingBottom=0;spacingLeft=0;spacingRight=0;points=[];labelBackgroundColor=none;rounded=0;html=1;whiteSpace=wrap;container=0;fontSize=24;fontStyle=0;horizontal=1;" vertex="1" parent="pI8diWF3I-Tx-rrlMoEu-48">
          <mxGeometry width="30" height="30" as="geometry" />
        </mxCell>
        <object label="" ADAPT="Hierarchy Level" id="pI8diWF3I-Tx-rrlMoEu-51">
          <mxCell style="rounded=1;whiteSpace=wrap;html=1;arcSize=50;fillColor=none;noLabel=1;connectable=0;editable=0;" vertex="1" parent="pI8diWF3I-Tx-rrlMoEu-47">
            <mxGeometry width="160" height="40" as="geometry" />
          </mxCell>
        </object>
        <object label="Location always means a &quot;Fiege Location&quot;" btelligentLibrary="ADAPT" btelligentShapeType="Comment" id="pI8diWF3I-Tx-rrlMoEu-52">
          <mxCell style="shape=note;whiteSpace=wrap;html=1;backgroundOutline=1;darkOpacity=0.05;size=10;fillColor=#fff2cc;strokeColor=#F5E08C;fontSize=10;verticalAlign=top;align=left;spacingLeft=3;spacingRight=3;" vertex="1" parent="1">
            <mxGeometry x="2920" y="1280" width="120" height="40" as="geometry" />
          </mxCell>
        </object>
        <UserObject label="" btelligentShapeType="LoosePrecedence" btelligentLibrary="ADAPT" id="pI8diWF3I-Tx-rrlMoEu-53">
          <mxCell style="vsdxID=5;startArrow=none;endArrow=block;startSize=10;endSize=10;strokeColor=#000000;spacingTop=2;spacingBottom=2;spacingLeft=2;spacingRight=2;verticalAlign=middle;html=1;labelBackgroundColor=#FFFFFF;rounded=1;jumpStyle=arc;startFill=0;endFill=1;fontStyle=2;labelBorderColor=none;edgeStyle=orthogonalEdgeStyle;" edge="1" parent="1" source="pI8diWF3I-Tx-rrlMoEu-42" target="pI8diWF3I-Tx-rrlMoEu-39">
            <mxGeometry relative="1" as="geometry">
              <mxPoint x="2730" y="1810" as="sourcePoint" />
              <mxPoint x="2730" y="1870" as="targetPoint" />
              <mxPoint as="offset" />
            </mxGeometry>
          </mxCell>
        </UserObject>
        <UserObject label="" btelligentShapeType="LoosePrecedence" btelligentLibrary="ADAPT" id="pI8diWF3I-Tx-rrlMoEu-54">
          <mxCell style="vsdxID=5;startArrow=none;endArrow=block;startSize=10;endSize=10;strokeColor=#000000;spacingTop=2;spacingBottom=2;spacingLeft=2;spacingRight=2;verticalAlign=middle;html=1;labelBackgroundColor=#FFFFFF;rounded=1;jumpStyle=arc;startFill=0;endFill=1;fontStyle=2;labelBorderColor=none;edgeStyle=orthogonalEdgeStyle;" edge="1" parent="1" source="pI8diWF3I-Tx-rrlMoEu-23" target="pI8diWF3I-Tx-rrlMoEu-33">
            <mxGeometry relative="1" as="geometry">
              <mxPoint x="3080" y="1570" as="sourcePoint" />
              <mxPoint x="3020" y="1570" as="targetPoint" />
              <mxPoint as="offset" />
            </mxGeometry>
          </mxCell>
        </UserObject>
        <UserObject label="" btelligentShapeType="LoosePrecedence" btelligentLibrary="ADAPT" id="pI8diWF3I-Tx-rrlMoEu-55">
          <mxCell style="vsdxID=5;startArrow=none;endArrow=block;startSize=10;endSize=10;strokeColor=#000000;spacingTop=2;spacingBottom=2;spacingLeft=2;spacingRight=2;verticalAlign=middle;html=1;labelBackgroundColor=#FFFFFF;rounded=1;jumpStyle=arc;startFill=0;endFill=1;fontStyle=2;labelBorderColor=none;edgeStyle=orthogonalEdgeStyle;" edge="1" parent="1" source="pI8diWF3I-Tx-rrlMoEu-23" target="pI8diWF3I-Tx-rrlMoEu-36">
            <mxGeometry relative="1" as="geometry">
              <mxPoint x="3090" y="1580" as="sourcePoint" />
              <mxPoint x="3030" y="1580" as="targetPoint" />
              <mxPoint as="offset" />
              <Array as="points">
                <mxPoint x="3520" y="1780" />
                <mxPoint x="3520" y="1840" />
              </Array>
            </mxGeometry>
          </mxCell>
        </UserObject>
        <UserObject label="" btelligentLibrary="ADAPT" btelligentShapeType="StrictPrecedence" id="pI8diWF3I-Tx-rrlMoEu-56">
          <mxCell style="vsdxID=5;edgeStyle=orthogonalEdgeStyle;startArrow=doubleBlock;endArrow=none;startSize=10;endSize=0;strokeColor=#000000;spacingTop=2;spacingBottom=2;spacingLeft=2;spacingRight=2;verticalAlign=middle;html=1;labelBackgroundColor=#FFFFFF;rounded=1;jumpStyle=arc;startFill=1;fontStyle=2" edge="1" parent="1" source="pI8diWF3I-Tx-rrlMoEu-47" target="pI8diWF3I-Tx-rrlMoEu-23">
            <mxGeometry x="0.25" relative="1" as="geometry">
              <mxPoint x="2730" y="1840" as="sourcePoint" />
              <mxPoint x="2730" y="1920" as="targetPoint" />
              <mxPoint as="offset" />
              <Array as="points">
                <mxPoint x="3160" y="1780" />
              </Array>
            </mxGeometry>
          </mxCell>
        </UserObject>
        <UserObject label="" btelligentLibrary="ADAPT" btelligentShapeType="StrictPrecedence" id="pI8diWF3I-Tx-rrlMoEu-57">
          <mxCell style="vsdxID=5;edgeStyle=orthogonalEdgeStyle;startArrow=doubleBlock;endArrow=none;startSize=10;endSize=0;strokeColor=#000000;spacingTop=2;spacingBottom=2;spacingLeft=2;spacingRight=2;verticalAlign=middle;html=1;labelBackgroundColor=#FFFFFF;rounded=1;jumpStyle=arc;startFill=1;fontStyle=2" edge="1" parent="1" source="pI8diWF3I-Tx-rrlMoEu-28" target="pI8diWF3I-Tx-rrlMoEu-23">
            <mxGeometry x="0.25" relative="1" as="geometry">
              <mxPoint x="3170" y="1690" as="sourcePoint" />
              <mxPoint x="3330" y="1790" as="targetPoint" />
              <mxPoint as="offset" />
              <Array as="points">
                <mxPoint x="3400" y="1720" />
                <mxPoint x="3400" y="1720" />
              </Array>
            </mxGeometry>
          </mxCell>
        </UserObject>
        <UserObject label="" btelligentLibrary="ADAPT" btelligentShapeType="StrictPrecedence" id="pI8diWF3I-Tx-rrlMoEu-58">
          <mxCell style="vsdxID=5;edgeStyle=orthogonalEdgeStyle;startArrow=doubleBlock;endArrow=none;startSize=10;endSize=0;strokeColor=#000000;spacingTop=2;spacingBottom=2;spacingLeft=2;spacingRight=2;verticalAlign=middle;html=1;labelBackgroundColor=#FFFFFF;rounded=1;jumpStyle=arc;startFill=1;fontStyle=2" edge="1" parent="1" source="pI8diWF3I-Tx-rrlMoEu-7" target="pI8diWF3I-Tx-rrlMoEu-28">
            <mxGeometry x="0.25" relative="1" as="geometry">
              <mxPoint x="3180" y="1700" as="sourcePoint" />
              <mxPoint x="3340" y="1800" as="targetPoint" />
              <mxPoint as="offset" />
              <Array as="points">
                <mxPoint x="3400" y="1640" />
                <mxPoint x="3400" y="1640" />
              </Array>
            </mxGeometry>
          </mxCell>
        </UserObject>
        <UserObject label="" btelligentLibrary="ADAPT" btelligentShapeType="StrictPrecedence" id="pI8diWF3I-Tx-rrlMoEu-59">
          <mxCell style="vsdxID=5;edgeStyle=orthogonalEdgeStyle;startArrow=doubleBlock;endArrow=none;startSize=10;endSize=0;strokeColor=#000000;spacingTop=2;spacingBottom=2;spacingLeft=2;spacingRight=2;verticalAlign=middle;html=1;labelBackgroundColor=#FFFFFF;rounded=1;jumpStyle=arc;startFill=1;fontStyle=2" edge="1" parent="1" source="pI8diWF3I-Tx-rrlMoEu-15" target="pI8diWF3I-Tx-rrlMoEu-42">
            <mxGeometry x="0.25" relative="1" as="geometry">
              <mxPoint x="3410" y="1450" as="sourcePoint" />
              <mxPoint x="3410" y="1610" as="targetPoint" />
              <mxPoint as="offset" />
              <Array as="points">
                <mxPoint x="3160" y="1500" />
                <mxPoint x="3160" y="1500" />
              </Array>
            </mxGeometry>
          </mxCell>
        </UserObject>
        <UserObject label="" btelligentLibrary="ADAPT" btelligentShapeType="StrictPrecedence" id="pI8diWF3I-Tx-rrlMoEu-60">
          <mxCell style="vsdxID=5;edgeStyle=orthogonalEdgeStyle;startArrow=doubleBlock;endArrow=none;startSize=10;endSize=0;strokeColor=#000000;spacingTop=2;spacingBottom=2;spacingLeft=2;spacingRight=2;verticalAlign=middle;html=1;labelBackgroundColor=#FFFFFF;rounded=1;jumpStyle=arc;startFill=1;fontStyle=2" edge="1" parent="1" source="pI8diWF3I-Tx-rrlMoEu-42" target="pI8diWF3I-Tx-rrlMoEu-47">
            <mxGeometry x="0.25" relative="1" as="geometry">
              <mxPoint x="3170" y="1450" as="sourcePoint" />
              <mxPoint x="3170" y="1530" as="targetPoint" />
              <mxPoint as="offset" />
              <Array as="points" />
            </mxGeometry>
          </mxCell>
        </UserObject>
        <UserObject label="" btelligentShapeType="LoosePrecedence" btelligentLibrary="ADAPT" id="pI8diWF3I-Tx-rrlMoEu-61">
          <mxCell style="vsdxID=5;startArrow=none;endArrow=block;startSize=10;endSize=10;strokeColor=#000000;spacingTop=2;spacingBottom=2;spacingLeft=2;spacingRight=2;verticalAlign=middle;html=1;labelBackgroundColor=#FFFFFF;rounded=1;jumpStyle=arc;startFill=0;endFill=1;fontStyle=2;labelBorderColor=none;edgeStyle=orthogonalEdgeStyle;" edge="1" parent="1" source="pI8diWF3I-Tx-rrlMoEu-1" target="pI8diWF3I-Tx-rrlMoEu-15">
            <mxGeometry relative="1" as="geometry">
              <mxPoint x="3090" y="1550" as="sourcePoint" />
              <mxPoint x="3010" y="1550" as="targetPoint" />
              <mxPoint as="offset" />
            </mxGeometry>
          </mxCell>
        </UserObject>
        <UserObject label="" btelligentShapeType="LoosePrecedence" btelligentLibrary="ADAPT" id="pI8diWF3I-Tx-rrlMoEu-62">
          <mxCell style="vsdxID=5;startArrow=none;endArrow=block;startSize=10;endSize=10;strokeColor=#000000;spacingTop=2;spacingBottom=2;spacingLeft=2;spacingRight=2;verticalAlign=middle;html=1;labelBackgroundColor=#FFFFFF;rounded=1;jumpStyle=arc;startFill=0;endFill=1;fontStyle=2;labelBorderColor=none;edgeStyle=orthogonalEdgeStyle;" edge="1" parent="1" source="pI8diWF3I-Tx-rrlMoEu-1" target="pI8diWF3I-Tx-rrlMoEu-7">
            <mxGeometry relative="1" as="geometry">
              <mxPoint x="3170" y="1330" as="sourcePoint" />
              <mxPoint x="3170" y="1410" as="targetPoint" />
              <mxPoint as="offset" />
            </mxGeometry>
          </mxCell>
        </UserObject>
        <object label="Location" btelligentShapeType="Dimension" btelligentLibrary="ADAPT" id="pI8diWF3I-Tx-rrlMoEu-63">
          <mxCell style="group;fillColor=default;verticalAlign=middle;align=left;spacingLeft=31;fontStyle=1;connectable=1;whiteSpace=wrap;" vertex="1" connectable="0" parent="1">
            <mxGeometry x="2600" y="1520" width="160" height="40" as="geometry" />
          </mxCell>
        </object>
        <object label="GGG" id="pI8diWF3I-Tx-rrlMoEu-64">
          <mxCell style="rounded=0;whiteSpace=wrap;html=1;noLabel=1;container=0;editable=0;movable=1;resizable=1;rotatable=1;deletable=1;locked=0;connectable=0;fillColor=none;" vertex="1" parent="pI8diWF3I-Tx-rrlMoEu-63">
            <mxGeometry width="160" height="40" as="geometry" />
          </mxCell>
        </object>
        <mxCell id="pI8diWF3I-Tx-rrlMoEu-65" value="" style="rounded=0;whiteSpace=wrap;html=1;fillColor=#000000;fontColor=#ffffff;strokeColor=#000000;strokeWidth=1;deletable=1;cloneable=0;movable=1;editable=1;resizable=1;rotatable=1;locked=0;connectable=1;container=0;expand=0;recursiveResize=0;allowArrows=0;" vertex="1" parent="pI8diWF3I-Tx-rrlMoEu-63">
          <mxGeometry x="6.000000000000028" y="14" width="10" height="10" as="geometry" />
        </mxCell>
        <mxCell id="pI8diWF3I-Tx-rrlMoEu-66" value="" style="endArrow=block;html=1;rounded=0;endFill=1;startSize=2;endSize=3;strokeWidth=1;deletable=1;cloneable=0;movable=1;editable=1;resizable=1;rotatable=1;locked=0;connectable=1;" edge="1" parent="pI8diWF3I-Tx-rrlMoEu-63">
          <mxGeometry width="50" height="50" relative="1" as="geometry">
            <mxPoint x="15.000000000000028" y="14" as="sourcePoint" />
            <mxPoint x="28.00000000000003" y="14" as="targetPoint" />
          </mxGeometry>
        </mxCell>
        <mxCell id="pI8diWF3I-Tx-rrlMoEu-67" value="" style="endArrow=block;html=1;rounded=0;endFill=1;startSize=2;endSize=3;strokeWidth=1;deletable=1;cloneable=0;movable=1;editable=1;resizable=1;rotatable=1;locked=0;connectable=1;" edge="1" parent="pI8diWF3I-Tx-rrlMoEu-63">
          <mxGeometry width="50" height="50" relative="1" as="geometry">
            <mxPoint x="6.000000000000028" y="22" as="sourcePoint" />
            <mxPoint x="6.000000000000028" y="36" as="targetPoint" />
          </mxGeometry>
        </mxCell>
        <mxCell id="pI8diWF3I-Tx-rrlMoEu-68" value="" style="endArrow=block;html=1;rounded=0;endFill=1;startSize=2;endSize=3;strokeWidth=1;deletable=1;cloneable=0;movable=1;editable=1;resizable=1;rotatable=1;locked=0;connectable=1;" edge="1" parent="pI8diWF3I-Tx-rrlMoEu-63">
          <mxGeometry width="50" height="50" relative="1" as="geometry">
            <mxPoint x="6.000000000000028" y="14" as="sourcePoint" />
            <mxPoint x="17.00000000000003" y="4" as="targetPoint" />
          </mxGeometry>
        </mxCell>
        <UserObject label="" btelligentShapeType="LoosePrecedence" btelligentLibrary="ADAPT" id="pI8diWF3I-Tx-rrlMoEu-69">
          <mxCell style="vsdxID=5;startArrow=none;endArrow=block;startSize=10;endSize=10;strokeColor=#000000;spacingTop=2;spacingBottom=2;spacingLeft=2;spacingRight=2;verticalAlign=middle;html=1;labelBackgroundColor=#FFFFFF;rounded=1;jumpStyle=arc;startFill=0;endFill=1;fontStyle=2;labelBorderColor=none;edgeStyle=orthogonalEdgeStyle;" edge="1" parent="1" source="pI8diWF3I-Tx-rrlMoEu-39" target="pI8diWF3I-Tx-rrlMoEu-63">
            <mxGeometry relative="1" as="geometry">
              <mxPoint x="3090" y="1550" as="sourcePoint" />
              <mxPoint x="3010" y="1550" as="targetPoint" />
              <mxPoint as="offset" />
            </mxGeometry>
          </mxCell>
        </UserObject>
      </root>
    </mxGraphModel>
  </diagram>
</mxfile>
